<?xml version="1.0" encoding="utf-8"?>
<!-- Generator: Adobe Illustrator 24.2.0, SVG Export Plug-In . SVG Version: 6.00 Build 0)  -->
<svg version="1.1" id="Layer_1" xmlns="http://www.w3.org/2000/svg" xmlns:xlink="http://www.w3.org/1999/xlink" x="0px" y="0px"
	 viewBox="0 0 1150 1061.1" style="enable-background:new 0 0 1150 1061.1;" xml:space="preserve">
<style type="text/css">
	.st0{fill:#74ABFF;stroke:#000000;stroke-miterlimit:10;}
	.st1{fill:none;stroke:#000000;stroke-miterlimit:10;}
	.st2{fill:#FFFFFF;stroke:#00D4BF;stroke-linecap:square;stroke-miterlimit:10;stroke-dasharray:12;}
	.st3{fill:#74ABFF;}
	.st4{fill:#1758FA;stroke:#1758FA;stroke-miterlimit:10;}
	.st5{fill:none;}
	.st6{font-family:'Arial-BoldMT';}
	.st7{font-size:19px;}
	.st8{font-size:14px;}
	.st9{stroke:#000000;stroke-miterlimit:10;}
	.st10{fill:#1758FA;}
	.st11{font-size:16px;}
	.st12{font-size:24px;}
	.st13{font-size:27px;}
	.st14{font-size:18px;}
	.st15{font-size:20px;}
	.st16{stroke:#100094;stroke-miterlimit:10;}
	.st17{fill:none;stroke:#100094;stroke-miterlimit:10;}
	.st18{font-size:12px;}
	.st19{stroke:#0000DF;stroke-miterlimit:10;}
	.st20{fill:none;stroke:#0000DF;stroke-miterlimit:10;}
	.st21{font-size:27.2029px;}
	.st22{font-size:25.3461px;}
	.st23{font-size:25px;}
	.st24{fill:none;stroke:#00085F;stroke-width:3;stroke-miterlimit:10;}
	.st25{fill:#FFFFFF;}
	.st26{fill:none;stroke:#00D5F4;stroke-miterlimit:10;}
	.st27{fill:none;stroke:#00D5F4;stroke-miterlimit:10;stroke-dasharray:11.2334,11.2334;}
	.st28{fill:none;stroke:#00D5F4;stroke-miterlimit:10;stroke-dasharray:12.2688,12.2688;}
	.st29{font-size:28px;}
	.st30{fill:none;stroke:#000000;stroke-miterlimit:10;stroke-dasharray:12.1459,12.1459;}
	.st31{fill:none;stroke:#000000;stroke-miterlimit:10;stroke-dasharray:11.2112,11.2112;}
	.st32{fill:#00AA09;stroke:#000000;stroke-miterlimit:10;stroke-dasharray:12;}
	.st33{fill:#00FBFF;}
	.st34{fill:none;stroke:#2AFFE4;stroke-width:4;stroke-miterlimit:10;}
	.st35{fill:#2AFFE4;}
</style>
<rect x="37.7" y="71.1" class="st0" width="55.1" height="80.1"/>
<rect x="108" y="71.1" class="st0" width="145.4" height="80.1"/>
<rect x="563.1" y="71.1" class="st0" width="276" height="27.1"/>
<rect x="253.5" y="98.3" class="st0" width="584.6" height="77.5"/>
<rect x="401.2" y="175.8" class="st0" width="94.3" height="41"/>
<rect x="567.1" y="175.8" class="st0" width="96.6" height="41"/>
<rect x="779" y="175.8" class="st0" width="59.1" height="37.2"/>
<rect x="760.8" y="254.3" class="st0" width="77.3" height="63.7"/>
<rect x="779" y="318" class="st0" width="59.1" height="71.3"/>
<rect x="37.7" y="259.9" class="st0" width="282" height="133.3"/>
<rect x="37.7" y="418" class="st0" width="102.7" height="53"/>
<rect x="140.4" y="418" class="st0" width="94.3" height="53"/>
<rect x="251.2" y="439.9" class="st0" width="585.5" height="75.6"/>
<rect x="256.3" y="520.9" class="st0" width="71" height="50.2"/>
<rect x="256.3" y="677.8" class="st0" width="76.1" height="50.7"/>
<rect x="256.3" y="576.4" class="st0" width="90.1" height="96.1"/>
<rect x="753.7" y="515.5" class="st0" width="83" height="218.4"/>
<rect x="255.7" y="733.9" class="st0" width="581" height="75.6"/>
<rect x="898.2" y="67.3" class="st0" width="230.8" height="239.8"/>
<rect x="998.3" y="307.1" class="st0" width="130.7" height="93.1"/>
<polygon class="st0" points="1058.3,400.8 1128.7,400.4 1128.7,595.7 1058.3,596.1 "/>
<rect x="893.6" y="596.1" class="st0" width="235.4" height="206.8"/>
<rect x="927.2" y="802.9" class="st0" width="201.8" height="133.9"/>
<path class="st0" d="M610.8,943.2"/>
<path class="st0" d="M767.6,792.1"/>
<path class="st0" d="M767.6,792.1"/>
<path class="st0" d="M767.3,858.8"/>
<path class="st0" d="M767.3,858.8"/>
<path class="st0" d="M610.8,865.4"/>
<path class="st0" d="M610.8,865.4"/>
<rect x="546.2" y="939.7" class="st0" width="61.4" height="48.6"/>
<path class="st0" d="M834.3,936.5"/>
<path class="st1" d="M610.8,943.2"/>
<rect x="291.8" y="812.9" class="st2" width="194.6" height="65"/>
<rect x="150.6" y="588.4" class="st0" width="94.3" height="74.3"/>
<path class="st1" d="M834.3,936.5"/>
<rect x="197.8" y="836.5" class="st3" width="76.7" height="77.8"/>
<rect x="197.8" y="914.3" class="st3" width="285.2" height="74"/>
<polygon class="st3" points="766.9,844.7 833.9,844.7 833.6,988.2 766.6,988.2 "/>
<rect x="613.7" y="913" class="st3" width="152.9" height="75.1"/>
<rect x="37.7" y="167.2" class="st0" width="146.2" height="52.9"/>
<rect x="253.5" y="71.1" class="st0" width="87.8" height="27.1"/>
<rect x="341.2" y="71.1" class="st0" width="85.3" height="27.1"/>
<rect x="426.5" y="71.1" class="st0" width="69" height="27.1"/>
<rect x="779" y="213" class="st0" width="59.1" height="41.4"/>
<line class="st1" x1="197.8" y1="836.5" x2="274.5" y2="836.5"/>
<line class="st1" x1="197.8" y1="988.4" x2="197.8" y2="914.3"/>
<line class="st1" x1="483" y1="988.4" x2="197.8" y2="988.4"/>
<line class="st1" x1="483" y1="914.3" x2="483" y2="988.4"/>
<line class="st1" x1="274.5" y1="914.3" x2="274.5" y2="836.5"/>
<line class="st1" x1="263.7" y1="922.5" x2="263.7" y2="922.5"/>
<line class="st1" x1="197.8" y1="914.3" x2="197.8" y2="836.5"/>
<line class="st1" x1="260.9" y1="925.3" x2="260.9" y2="925.3"/>
<line class="st1" x1="268.5" y1="917.7" x2="268.5" y2="917.7"/>
<line class="st1" x1="274.5" y1="914.3" x2="483" y2="914.3"/>
<line class="st1" x1="613.7" y1="913" x2="766.6" y2="913"/>
<line class="st1" x1="766.9" y1="844.7" x2="766.6" y2="913"/>
<line class="st1" x1="833.9" y1="844.7" x2="766.9" y2="844.7"/>
<line class="st1" x1="833.6" y1="988.2" x2="833.9" y2="844.7"/>
<rect x="256.3" y="733.9" class="st4" width="108.3" height="37.8"/>
<line class="st1" x1="613.7" y1="988.3" x2="613.7" y2="913"/>
<line class="st1" x1="613.7" y1="988.3" x2="833.6" y2="988.2"/>
<rect x="47.3" y="88.3" class="st5" width="36" height="53.1"/>
<text transform="matrix(1 0 0 1 47.3201 101.9442)"><tspan x="0" y="0" class="st6 st7">Bảo</tspan><tspan x="7.4" y="22.8" class="st6 st7">vệ</tspan></text>
<rect x="118.9" y="100.6" class="st5" width="123.6" height="26.8"/>
<text transform="matrix(1 0 0 1 129.5614 114.1955)" class="st6 st7">THƯ QUÁN</text>
<rect x="273.4" y="77.7" class="st5" width="48" height="17.9"/>
<text transform="matrix(1 0 0 1 292.1334 91.3176)" class="st6 st7">1</text>
<rect x="359.9" y="77.7" class="st5" width="48" height="17.9"/>
<text transform="matrix(1 0 0 1 378.5834 91.3176)" class="st6 st7">1</text>
<rect x="437" y="77.7" class="st5" width="48" height="17.9"/>
<text transform="matrix(1 0 0 1 455.7334 91.3176)" class="st6 st7">1</text>
<rect x="50.1" y="178.6" class="st5" width="121.5" height="30.1"/>
<text transform="matrix(1 0 0 1 57.9275 188.6103)"><tspan x="0" y="0" class="st6 st8">VPK Nghệ thuật </tspan><tspan x="19.4" y="16.8" class="st6 st8">và khu NT</tspan></text>
<line class="st9" x1="224.2" y1="259.9" x2="224.2" y2="393.2"/>
<line class="st1" x1="140.4" y1="259.9" x2="140.4" y2="304.3"/>
<rect x="251.2" y="439.9" class="st10" width="108.3" height="37.8"/>
<line class="st1" x1="224.2" y1="304.3" x2="140.4" y2="304.3"/>
<rect x="145.5" y="267.1" class="st5" width="74" height="33.2"/>
<text transform="matrix(1 0 0 1 168.16 277.0879)"><tspan x="0" y="0" class="st6 st8">VPK</tspan><tspan x="-14.4" y="16.8" class="st6 st8">Mỹ thuật</tspan></text>
<rect x="230.3" y="288" class="st5" width="78.9" height="89.9"/>
<text transform="matrix(1 0 0 1 255.5071 299.4561)"><tspan x="0" y="0" class="st6 st11">HỘI</tspan><tspan x="-21.9" y="21" class="st6 st11">TRƯỜNG</tspan><tspan x="8.4" y="42" class="st6 st11">A</tspan></text>
<rect x="446.9" y="122.6" class="st5" width="164.9" height="43.9"/>
<text transform="matrix(1 0 0 1 492.0261 139.737)" class="st6 st12">DÃY A</text>
<rect x="408.5" y="189.2" class="st5" width="79.3" height="14.2"/>
<text transform="matrix(1 0 0 1 413.9496 199.2375)" class="st6 st8">Cầu thang</text>
<rect x="577.4" y="189.2" class="st5" width="79.3" height="14.2"/>
<text transform="matrix(1 0 0 1 582.8116 199.2375)" class="st6 st8">Cầu thang</text>
<rect x="786.7" y="187.6" class="st5" width="45.3" height="17.4"/>
<text transform="matrix(1 0 0 1 794.9686 197.6431)" class="st6 st8">NVS</text>
<rect x="786.6" y="228.8" class="st5" width="45.6" height="18"/>
<text transform="matrix(1 0 0 1 792.6277 238.79)" class="st6 st8">A016</text>
<rect x="768.8" y="266.9" class="st5" width="61.3" height="38.5"/>
<text transform="matrix(1 0 0 1 777.6938 276.9398)"><tspan x="0" y="0" class="st6 st8">Phòng</tspan><tspan x="1.9" y="21" class="st6 st8">họp A</tspan></text>
<rect x="791.5" y="328.9" class="st5" width="35.4" height="50.4"/>
<text transform="matrix(1 0 0 1 800.243 338.875)"><tspan x="0" y="0" class="st6 st8">Kỹ</tspan><tspan x="-8.2" y="21" class="st6 st8">thuật</tspan></text>
<rect x="933.4" y="175.8" class="st5" width="167.5" height="66.1"/>
<text transform="matrix(1 0 0 1 975.9334 195.1313)" class="st6 st13">DÃY E</text>
<rect x="1017.2" y="330.4" class="st5" width="98.6" height="46.5"/>
<text transform="matrix(1 0 0 1 1025.4708 343.3036)"><tspan x="0" y="0" class="st6 st14">Sân bóng </tspan><tspan x="9.5" y="21" class="st6 st14">chuyền</tspan></text>
<rect x="1063.7" y="465.4" class="st5" width="58.7" height="78.4"/>
<text transform="matrix(1 0 0 1 1065.0314 478.3004)"><tspan x="0" y="0" class="st6 st14">Phòng</tspan><tspan x="5" y="21" class="st6 st14">Bóng </tspan><tspan x="12" y="42" class="st6 st14">bàn</tspan></text>
<line class="st1" x1="1016.6" y1="596.1" x2="1016.6" y2="802.9"/>
<rect x="1041.2" y="668.4" class="st5" width="65.4" height="80.6"/>
<text transform="matrix(1 0 0 1 1057.3671 681.3132)"><tspan x="0" y="0" class="st6 st14">Sân </tspan><tspan x="1" y="21" class="st6 st14">cầu </tspan><tspan x="-2.5" y="42" class="st6 st14">lông</tspan></text>
<rect x="923.5" y="656" class="st5" width="65.4" height="80.6"/>
<text transform="matrix(1 0 0 1 939.6649 668.9005)"><tspan x="0" y="0" class="st6 st14">Sân </tspan><tspan x="-5.5" y="21" class="st6 st14">bóng </tspan><tspan x="7.5" y="42" class="st6 st14">rổ</tspan></text>
<rect x="964.6" y="847.1" class="st5" width="131.7" height="76.6"/>
<text transform="matrix(1 0 0 1 1013.9629 860.0364)"><tspan x="0" y="0" class="st6 st14">Sân</tspan><tspan x="-18.5" y="21" class="st6 st14">bóng đá</tspan></text>
<rect x="54.6" y="429.4" class="st5" width="74.6" height="32.7"/>
<text transform="matrix(1 0 0 1 65.6805 440.9023)"><tspan x="0" y="0" class="st6 st11">Nhà vệ </tspan><tspan x="-3.1" y="21" class="st6 st11">sinh nữ</tspan></text>
<rect x="150.3" y="428" class="st5" width="74.6" height="32.7"/>
<text transform="matrix(1 0 0 1 161.3326 439.4428)"><tspan x="0" y="0" class="st6 st11">Nhà vệ </tspan><tspan x="-8.9" y="21" class="st6 st11">sinh nam</tspan></text>
<rect x="260.9" y="526" class="st5" width="59.7" height="38.3"/>
<text transform="matrix(1 0 0 1 275.2577 537.4131)"><tspan x="0" y="0" class="st6 st11">Khu</tspan><tspan x="-9.4" y="21" class="st6 st11">tự học</tspan></text>
<rect x="264.5" y="684" class="st5" width="59.7" height="38.3"/>
<text transform="matrix(1 0 0 1 278.8162 695.4567)"><tspan x="0" y="0" class="st6 st11">Khu</tspan><tspan x="-9.4" y="21" class="st6 st11">tự học</tspan></text>
<rect x="271.5" y="615" class="st5" width="59.7" height="24.8"/>
<text transform="matrix(1 0 0 1 281.9285 629.369)" class="st6 st15">KLF</text>
<line class="st16" x1="256.3" y1="771.7" x2="364.6" y2="771.7"/>
<line class="st17" x1="364.6" y1="733.9" x2="364.6" y2="771.7"/>
<rect x="259.9" y="746.5" class="st5" width="98.6" height="15.9"/>
<text transform="matrix(1 0 0 1 263.7337 755.1168)" class="st6 st18">HỘI TRƯỜNG C</text>
<line class="st19" x1="251.2" y1="477.7" x2="359.5" y2="477.7"/>
<line class="st20" x1="359.5" y1="439.9" x2="359.5" y2="477.7"/>
<rect x="257.9" y="451.6" class="st5" width="98.6" height="15.9"/>
<text transform="matrix(1 0 0 1 261.7114 460.1956)" class="st6 st18">HỘI TRƯỜNG B</text>
<text transform="matrix(1.0641 0 0 1 491.8176 487.6315)" class="st6 st21">DÃY B</text>
<text transform="matrix(1.0641 0 0 1 498.9363 780.5508)" class="st6 st21">DÃY C</text>
<text transform="matrix(0.4769 0 0 1 174.368 615.0508)"><tspan x="0" y="0" class="st6 st22">Khu lấy </tspan><tspan x="-18.2" y="35" class="st6 st22">nước uống</tspan></text>
<rect x="669.8" y="942.1" class="st5" width="125" height="25"/>
<text transform="matrix(1 0 0 1 696.6138 959.966)" class="st6 st23">Dãy D</text>
<rect x="555.5" y="950.3" class="st5" width="42.2" height="33.6"/>
<text transform="matrix(1 0 0 1 565.1877 958.9067)"><tspan x="0" y="0" class="st6 st18">Bảo</tspan><tspan x="4.7" y="16" class="st6 st18">vệ</tspan></text>
<rect x="219.8" y="930.9" class="st5" width="201.8" height="47.5"/>
<text transform="matrix(1 0 0 1 262.3122 945.2289)"><tspan x="0" y="0" class="st6 st15">Khu hiệu bộ</tspan><tspan x="14.6" y="26" class="st6 st15">(Khu HB)</tspan></text>
<rect x="302.1" y="824.3" class="st5" width="174.1" height="47.5"/>
<text transform="matrix(1 0 0 1 310.8214 834.303)"><tspan x="0" y="0" class="st6 st8">Khu giữ xe của cán bộ- </tspan><tspan x="26" y="26" class="st6 st8">công viên chức</tspan></text>
<line class="st24" x1="16.9" y1="55.4" x2="16.9" y2="487.6"/>
<line class="st24" x1="140.4" y1="487.6" x2="16.9" y2="487.6"/>
<line class="st24" x1="140.4" y1="993.9" x2="140.4" y2="487.6"/>
<line class="st24" x1="483" y1="993.9" x2="138.4" y2="993.9"/>
<line class="st24" x1="838.1" y1="993.9" x2="546.2" y2="993.9"/>
<line class="st24" x1="1135.1" y1="55.4" x2="1135.1" y2="993.9"/>
<line class="st24" x1="1135.1" y1="55.4" x2="898.2" y2="55.4"/>
<line class="st24" x1="839.1" y1="55.4" x2="563.1" y2="55.4"/>
<line class="st24" x1="495.5" y1="55.4" x2="108" y2="55.4"/>
<line class="st24" x1="16.9" y1="55.4" x2="92.8" y2="55.4"/>
<line class="st24" x1="887" y1="993.9" x2="1135.1" y2="993.9"/>
<rect x="393.2" y="1004.9" class="st5" width="245.1" height="46"/>
<text transform="matrix(1 0 0 1 495.1634 1016.3926)"><tspan x="0" y="0" class="st6 st11">Cổng </tspan><tspan x="-64.5" y="22" class="st6 st11">273 An Dương Vương</tspan></text>
<rect x="775.1" y="1008" class="st5" width="185.9" height="41.9"/>
<text transform="matrix(1 0 0 1 837.575 1019.4561)"><tspan x="0" y="0" class="st6 st11">Cổng ra</tspan><tspan x="-54.6" y="22" class="st6 st11">275 An Dương Vương</tspan></text>
<rect x="-20.9" y="9.4" class="st5" width="245.1" height="46"/>
<text transform="matrix(1 0 0 1 81.0358 20.9032)"><tspan x="0" y="0" class="st6 st11">Cổng </tspan><tspan x="-32.9" y="22" class="st6 st11">2 Nguyễn Trãi</tspan></text>
<rect x="406.8" y="9.4" class="st5" width="245.1" height="46"/>
<text transform="matrix(1 0 0 1 498.8512 20.9032)"><tspan x="0" y="0" class="st6 st11">Cổng ra</tspan><tspan x="-23" y="22" class="st6 st11">4 Nguyễn Trãi</tspan></text>
<rect x="738.9" y="10.7" class="st5" width="245.1" height="46"/>
<text transform="matrix(1 0 0 1 824.6653 22.1323)"><tspan x="0" y="0" class="st6 st11">Cổng vào</tspan><tspan x="-16.7" y="22" class="st6 st11">6 Nguyễn Trãi</tspan></text>
<g>
	<rect x="898.2" y="341.1" class="st25" width="90.6" height="245.1"/>
	<g>
		<polyline class="st26" points="988.9,580.2 988.9,586.2 982.9,586.2 		"/>
		<line class="st27" x1="971.6" y1="586.2" x2="909.8" y2="586.2"/>
		<polyline class="st26" points="904.2,586.2 898.2,586.2 898.2,580.2 		"/>
		<line class="st28" x1="898.2" y1="567.9" x2="898.2" y2="353.2"/>
		<polyline class="st26" points="898.2,347.1 898.2,341.1 904.2,341.1 		"/>
		<line class="st27" x1="915.5" y1="341.1" x2="977.2" y2="341.1"/>
		<polyline class="st26" points="982.9,341.1 988.9,341.1 988.9,347.1 		"/>
		<line class="st28" x1="988.9" y1="359.4" x2="988.9" y2="574.1"/>
	</g>
</g>
<rect x="911" y="363.6" class="st5" width="68.4" height="180.2"/>
<text transform="matrix(1 0 0 1 927.5887 376.4624)"><tspan x="0" y="0" class="st6 st14">Khu </tspan><tspan x="-9.7" y="22" class="st6 st14">giữ xe </tspan><tspan x="1.5" y="44" class="st6 st14">học </tspan><tspan x="-3.6" y="66" class="st6 st14">sinh, </tspan><tspan x="-1.1" y="88" class="st6 st14">sinh </tspan><tspan x="-3.1" y="110" class="st6 st14">viên, </tspan><tspan x="-8.6" y="132" class="st6 st14">khách</tspan></text>
<rect x="760.8" y="602" class="st5" width="66.1" height="103.5"/>
<text transform="matrix(1 0 0 1 767.2391 622.0969)"><tspan x="0" y="0" class="st6 st29">Căn </tspan><tspan x="9.3" y="31" class="st6 st29">tin</tspan></text>
<g>
	<rect x="373.8" y="571.1" class="st25" width="97" height="112.9"/>
	<g>
		<polyline class="st1" points="470.8,678 470.8,684 464.8,684 		"/>
		<line class="st30" x1="452.7" y1="684" x2="385.9" y2="684"/>
		<polyline class="st1" points="379.8,684 373.8,684 373.8,678 		"/>
		<line class="st31" x1="373.8" y1="666.8" x2="373.8" y2="582.7"/>
		<polyline class="st1" points="373.8,577.1 373.8,571.1 379.8,571.1 		"/>
		<line class="st30" x1="391.9" y1="571.1" x2="458.7" y2="571.1"/>
		<polyline class="st1" points="464.8,571.1 470.8,571.1 470.8,577.1 		"/>
		<line class="st31" x1="470.8" y1="588.3" x2="470.8" y2="672.4"/>
	</g>
</g>
<rect x="378.9" y="585.1" class="st5" width="85.8" height="92.9"/>
<text transform="matrix(1 0 0 1 404.2503 598.6678)"><tspan x="0" y="0" class="st6 st7">Sân</tspan><tspan x="-5.8" y="28" class="st6 st7">bóng</tspan><tspan x="-16" y="56" class="st6 st7">chuyền</tspan></text>
<rect x="479" y="544.3" class="st5" width="82.7" height="29.6"/>
<text transform="matrix(1 0 0 1 493.7093 557.9443)" class="st6 st7">S.B01</text>
<rect x="479" y="678.6" class="st5" width="82.7" height="29.6"/>
<text transform="matrix(1 0 0 1 493.7093 692.2231)" class="st6 st7">S.B02</text>
<g>
	<rect x="630.6" y="565.1" class="st25" width="97" height="112.9"/>
	<g>
		<polyline class="st1" points="727.7,672 727.7,678 721.7,678 		"/>
		<line class="st30" x1="709.5" y1="678" x2="642.7" y2="678"/>
		<polyline class="st1" points="636.6,678 630.6,678 630.6,672 		"/>
		<line class="st31" x1="630.6" y1="660.8" x2="630.6" y2="576.7"/>
		<polyline class="st1" points="630.6,571.1 630.6,565.1 636.6,565.1 		"/>
		<line class="st30" x1="648.8" y1="565.1" x2="715.6" y2="565.1"/>
		<polyline class="st1" points="721.7,565.1 727.7,565.1 727.7,571.1 		"/>
		<line class="st31" x1="727.7" y1="582.3" x2="727.7" y2="666.4"/>
	</g>
</g>
<rect x="635.7" y="579.1" class="st5" width="85.8" height="92.9"/>
<text transform="matrix(1 0 0 1 661.1014 592.6667)"><tspan x="0" y="0" class="st6 st7">Sân</tspan><tspan x="-5.8" y="28" class="st6 st7">bóng</tspan><tspan x="-16" y="56" class="st6 st7">chuyền</tspan></text>
<rect x="391.8" y="331.9" class="st32" width="96" height="31.7"/>
<rect x="391.8" y="378.1" class="st32" width="96" height="31.7"/>
<rect x="567.4" y="331.9" class="st32" width="96" height="31.7"/>
<rect x="565.7" y="378.1" class="st32" width="96" height="31.7"/>
<rect x="394.3" y="420.5" class="st5" width="64.3" height="29.6"/>
<text transform="matrix(1 0 0 1 399.886 434.1509)" class="st6 st7">S.A04</text>
<rect x="202.5" y="225.3" class="st5" width="64.3" height="29.6"/>
<text transform="matrix(1 0 0 1 208.0859 238.8658)" class="st6 st7">S.A05</text>
<rect x="254.2" y="181.5" class="st5" width="64.3" height="29.6"/>
<text transform="matrix(1 0 0 1 259.7689 195.0956)" class="st6 st7">S.A03</text>
<rect x="636.4" y="293" class="st5" width="64.3" height="29.6"/>
<text transform="matrix(1 0 0 1 641.9157 306.6456)" class="st6 st7">S.A01</text>
<rect x="498.4" y="191.9" class="st5" width="64.3" height="29.6"/>
<text transform="matrix(1 0 0 1 503.9178 205.5232)" class="st6 st7">S.A02</text>
<g>
	<line class="st33" x1="858.9" y1="894.6" x2="859.9" y2="981.8"/>
	<g>
		<line class="st34" x1="858.9" y1="894.6" x2="859.7" y2="967.5"/>
		<g>
			<path class="st35" d="M859.7,965.9c4.1-4.2,12.4-6.3,18.1-6.5c-7.6,5.8-14.3,13.3-17.9,22.4c-3.7-9-10.9-16-18.4-22
				C847.6,960.2,855.1,961.6,859.7,965.9z"/>
		</g>
	</g>
</g>
<g>
	<line class="st33" x1="868.2" y1="54.6" x2="869.2" y2="141.8"/>
	<g>
		<line class="st34" x1="868.2" y1="54.6" x2="869" y2="127.5"/>
		<g>
			<path class="st35" d="M869,125.9c4.1-4.2,12.4-6.3,18.1-6.5c-7.6,5.8-14.3,13.3-17.9,22.4c-3.7-9-10.9-16-18.4-22
				C856.9,120.2,864.4,121.6,869,125.9z"/>
		</g>
	</g>
</g>
<g>
	<line class="st33" x1="530.5" y1="86.5" x2="530.5" y2="47.5"/>
	<g>
		<line class="st34" x1="530.5" y1="86.5" x2="530.5" y2="61.8"/>
		<g>
			<path class="st35" d="M530.5,63.4c-4.2,4.2-12.4,6.2-18.2,6.3c7.7-5.7,14.4-13.2,18.2-22.2c3.6,9,10.7,16.1,18.2,22.2
				C542.6,69.2,535.1,67.7,530.5,63.4z"/>
		</g>
	</g>
</g>
</svg>
